# xmcd CD database file
#
# Track frame offsets:
#	150
#	27345
#	43208
#	61660
#	78056
#	94391
#	112672
#	133231
#	145222
#	160634
#	172724
#	190416
#	214517
#	238630
#
# Disc length: 3386 seconds
#
# Revision: 0
# Processed by: cddbd v1.5.2PL0 Copyright (c) Steve Scherf et al.
# Submitted via: CDex 1.70beta2
#
DISCID=b00d380e
DTITLE=oum-tcha - a tes souhaits
DYEAR=2007
DGENRE=Jazz
TTITLE0=stomping at the savoy
TTITLE1=some of these days
TTITLE2=bei mir bist du schon
TTITLE3=nuage
TTITLE4=charleston
TTITLE5=all of me
TTITLE6=ain't he sweet
TTITLE7=diddly klesmer
TTITLE8=putting on the ritz
TTITLE9=after hours
TTITLE10=after you've gone
TTITLE11=ederlezi+caravan
TTITLE12=ain't misbehavin'
TTITLE13=sweet georgia brown
EXTD=YEAR: 2007
EXTT0=
EXTT1=
EXTT2=
EXTT3=
EXTT4=
EXTT5=
EXTT6=
EXTT7=
EXTT8=
EXTT9=
EXTT10=
EXTT11=
EXTT12=
EXTT13=
PLAYORDER=
